<?xml version="1.0" encoding="UTF-8"?>
<!DOCTYPE svg PUBLIC "-//W3C//DTD SVG 1.1//EN" "http://www.w3.org/Graphics/SVG/1.1/DTD/svg11.dtd">
<svg xmlns="http://www.w3.org/2000/svg" version="1.1" width="300px" height="300px" style="shape-rendering:geometricPrecision; text-rendering:geometricPrecision; image-rendering:optimizeQuality; fill-rule:evenodd; clip-rule:evenodd" xmlns:xlink="http://www.w3.org/1999/xlink">
<g><path style="opacity:1" fill="#fdfefe" d="M -0.5,-0.5 C 99.5,-0.5 199.5,-0.5 299.5,-0.5C 299.5,99.5 299.5,199.5 299.5,299.5C 199.5,299.5 99.5,299.5 -0.5,299.5C -0.5,199.5 -0.5,99.5 -0.5,-0.5 Z"/></g>
<g><path style="opacity:1" fill="#808080" d="M 200.5,38.5 C 201.598,37.3991 201.765,36.0657 201,34.5C 198.533,29.0609 195.7,23.8943 192.5,19C 203.005,15.6142 212.005,17.9475 219.5,26C 216.123,26.4517 212.789,27.1184 209.5,28C 208.333,30.5 206.5,32.3333 204,33.5C 203.312,34.3317 203.479,34.9984 204.5,35.5C 209.29,30.8808 214.957,29.3808 221.5,31C 212.092,30.8668 205.425,35.0335 201.5,43.5C 202.09,44.7989 203.09,45.6322 204.5,46C 210.911,46.5792 217.244,46.5792 223.5,46C 221.641,47.9814 219.308,48.9814 216.5,49C 221.563,50.3285 221.229,51.3285 215.5,52C 218.347,52.9439 220.847,52.4439 223,50.5C 226.997,56.479 225.831,61.3123 219.5,65C 203.3,67.5723 187.3,66.5723 171.5,62C 167.317,60.2039 162.984,58.8706 158.5,58C 159.793,57.51 161.127,57.3433 162.5,57.5C 162.442,53.2125 160.442,51.8791 156.5,53.5C 157.729,54.2811 159.062,54.7811 160.5,55C 157.929,55.9009 155.596,57.2342 153.5,59C 156.184,63.348 159.851,66.6814 164.5,69C 179.785,78.6494 196.452,81.9828 214.5,79C 217,78.6253 219.333,77.7919 221.5,76.5C 220.753,83.8138 217.42,89.9805 211.5,95C 209.389,95.8447 207.389,96.678 205.5,97.5C 202.194,98.8202 199.194,100.653 196.5,103C 171.636,106.635 148.303,102.301 126.5,90C 123.882,87.8943 121.882,85.3943 120.5,82.5C 120.334,76.4908 120.501,70.4908 121,64.5C 127.455,46.4168 137.455,30.7501 151,17.5C 153.055,12.1122 156.555,7.94558 161.5,5C 167.167,4.33333 172.833,4.33333 178.5,5C 182.323,6.64095 184.323,9.47428 184.5,13.5C 179.156,13.334 173.823,13.5006 168.5,14C 165.588,15.2396 162.921,16.9063 160.5,19C 161.5,19.6667 162.5,19.6667 163.5,19C 165.377,16.8942 167.71,15.5609 170.5,15C 177.843,13.4896 184.509,14.8229 190.5,19C 192.998,21.4479 194.498,24.2813 195,27.5C 185.244,26.3485 175.411,26.1819 165.5,27C 161.374,29.1002 158.874,32.2668 158,36.5C 164.783,38.6404 171.283,41.4737 177.5,45C 181.653,45.9134 185.82,46.7467 190,47.5C 192.501,47.4162 194.834,46.7495 197,45.5C 197.5,45.8333 198,46.1667 198.5,46.5C 196.121,48.0419 193.454,48.7086 190.5,48.5C 184.442,48.0869 178.442,47.2536 172.5,46C 170.359,44.6924 168.359,43.1924 166.5,41.5C 167.382,44.5364 169.715,46.7031 173.5,48C 179.848,48.9184 186.181,49.9184 192.5,51C 188.636,54.432 184.302,57.0987 179.5,59C 182.924,58.6395 186.258,57.6395 189.5,56C 192.421,52.4084 195.921,49.5751 200,47.5C 200.167,47 200.333,46.5 200.5,46C 198.109,43.6164 196.609,40.7831 196,37.5C 188.368,29.8846 179.202,27.3846 168.5,30C 165.438,31.0608 162.938,32.8941 161,35.5C 160.731,32.7202 161.898,30.5536 164.5,29C 176.965,25.0042 187.798,27.5042 197,36.5C 198,38.5 199,40.5 200,42.5C 200.49,41.2068 200.657,39.8734 200.5,38.5 Z"/></g>
<g><path style="opacity:1" fill="#171616" d="M 208.5,97.5 C 207.5,97.5 206.5,97.5 205.5,97.5C 207.389,96.678 209.389,95.8447 211.5,95C 217.42,89.9805 220.753,83.8138 221.5,76.5C 219.333,77.7919 217,78.6253 214.5,79C 196.452,81.9828 179.785,78.6494 164.5,69C 159.851,66.6814 156.184,63.348 153.5,59C 155.596,57.2342 157.929,55.9009 160.5,55C 159.062,54.7811 157.729,54.2811 156.5,53.5C 160.442,51.8791 162.442,53.2125 162.5,57.5C 161.127,57.3433 159.793,57.51 158.5,58C 162.984,58.8706 167.317,60.2039 171.5,62C 187.3,66.5723 203.3,67.5723 219.5,65C 225.831,61.3123 226.997,56.479 223,50.5C 220.847,52.4439 218.347,52.9439 215.5,52C 221.229,51.3285 221.563,50.3285 216.5,49C 219.308,48.9814 221.641,47.9814 223.5,46C 217.244,46.5792 210.911,46.5792 204.5,46C 203.09,45.6322 202.09,44.7989 201.5,43.5C 205.425,35.0335 212.092,30.8668 221.5,31C 214.957,29.3808 209.29,30.8808 204.5,35.5C 203.479,34.9984 203.312,34.3317 204,33.5C 206.5,32.3333 208.333,30.5 209.5,28C 212.789,27.1184 216.123,26.4517 219.5,26C 212.005,17.9475 203.005,15.6142 192.5,19C 195.7,23.8943 198.533,29.0609 201,34.5C 201.765,36.0657 201.598,37.3991 200.5,38.5C 200.657,39.8734 200.49,41.2068 200,42.5C 199,40.5 198,38.5 197,36.5C 187.798,27.5042 176.965,25.0042 164.5,29C 161.898,30.5536 160.731,32.7202 161,35.5C 162.938,32.8941 165.438,31.0608 168.5,30C 179.202,27.3846 188.368,29.8846 196,37.5C 196.609,40.7831 198.109,43.6164 200.5,46C 200.333,46.5 200.167,47 200,47.5C 195.921,49.5751 192.421,52.4084 189.5,56C 186.258,57.6395 182.924,58.6395 179.5,59C 184.302,57.0987 188.636,54.432 192.5,51C 186.181,49.9184 179.848,48.9184 173.5,48C 169.715,46.7031 167.382,44.5364 166.5,41.5C 168.359,43.1924 170.359,44.6924 172.5,46C 178.442,47.2536 184.442,48.0869 190.5,48.5C 193.454,48.7086 196.121,48.0419 198.5,46.5C 198,46.1667 197.5,45.8333 197,45.5C 194.834,46.7495 192.501,47.4162 190,47.5C 185.82,46.7467 181.653,45.9134 177.5,45C 171.283,41.4737 164.783,38.6404 158,36.5C 158.874,32.2668 161.374,29.1002 165.5,27C 175.411,26.1819 185.244,26.3485 195,27.5C 194.498,24.2813 192.998,21.4479 190.5,19C 184.509,14.8229 177.843,13.4896 170.5,15C 167.71,15.5609 165.377,16.8942 163.5,19C 162.5,19.6667 161.5,19.6667 160.5,19C 162.921,16.9063 165.588,15.2396 168.5,14C 173.823,13.5006 179.156,13.334 184.5,13.5C 184.323,9.47428 182.323,6.64095 178.5,5C 172.833,4.33333 167.167,4.33333 161.5,5C 156.555,7.94558 153.055,12.1122 151,17.5C 137.455,30.7501 127.455,46.4168 121,64.5C 120.501,70.4908 120.334,76.4908 120.5,82.5C 119.514,78.03 119.181,73.3633 119.5,68.5C 119.408,63.4399 120.742,58.7732 123.5,54.5C 121.647,53.2404 119.814,53.2404 118,54.5C 113.932,62.0134 112.599,70.0134 114,78.5C 114.353,81.1525 115.52,83.1525 117.5,84.5C 116.5,85.5 115.5,86.5 114.5,87.5C 114.345,83.3642 113.011,79.6975 110.5,76.5C 110.833,76.5 111.167,76.5 111.5,76.5C 110.455,67.5322 112.788,59.3656 118.5,52C 120.859,51.7922 123.026,51.6256 125,51.5C 126.076,48.3516 127.409,45.3516 129,42.5C 133,36.5 137,30.5 141,24.5C 147.242,18.9286 152.742,12.762 157.5,6C 164.796,2.13012 172.463,1.46346 180.5,4C 181.399,5.23625 182.566,6.06958 184,6.5C 198.962,-0.944596 209.129,3.38874 214.5,19.5C 218.992,23.8234 223.659,27.9901 228.5,32C 227.697,36.4145 227.197,40.9145 227,45.5C 225.926,46.6184 224.76,47.6184 223.5,48.5C 225.993,52.0146 228.327,55.5146 230.5,59C 229.666,61.8483 228,64.1816 225.5,66C 228.354,69.6 227.687,72.6 223.5,75C 224.554,76.3876 224.72,77.8876 224,79.5C 221.275,85.786 217.442,91.286 212.5,96C 211.255,96.7914 209.922,97.2914 208.5,97.5 Z"/></g>
<g><path style="opacity:1" fill="#8b8b8b" d="M 200.5,38.5 C 197.311,34.1492 193.311,30.6492 188.5,28C 194.998,28.3137 198.998,31.8137 200.5,38.5 Z"/></g>
<g><path style="opacity:1" fill="#838383" d="M 189.5,4.5 C 199.961,2.73115 207.295,6.73115 211.5,16.5C 211,16.8333 210.5,17.1667 210,17.5C 203.656,15.0026 197.323,15.0026 191,17.5C 189.846,16.2567 188.512,15.2567 187,14.5C 186.749,12.567 186.249,10.7337 185.5,9C 187.041,7.62879 188.375,6.12879 189.5,4.5 Z"/></g>
<g><path style="opacity:1" fill="#838383" d="M 171.5,30.5 C 177.675,29.6432 183.342,30.8099 188.5,34C 180.139,34.5017 171.806,34.8351 163.5,35C 165.82,32.6785 168.486,31.1785 171.5,30.5 Z"/></g>
<g><path style="opacity:1" fill="#858585" d="M 211.5,33.5 C 215.182,33.3347 218.848,33.5014 222.5,34C 225.282,37.1127 224.949,37.7793 221.5,36C 217.833,35.6667 214.167,35.3333 210.5,35C 211.056,34.6174 211.389,34.1174 211.5,33.5 Z"/></g>
<g><path style="opacity:1" fill="#ededed" d="M 166.5,37.5 C 168.288,36.3775 170.288,36.2109 172.5,37C 171.809,38.0674 171.309,39.2341 171,40.5C 169.729,39.1175 168.229,38.1175 166.5,37.5 Z"/></g>
<g><path style="opacity:1" fill="#f4f4f4" d="M 186.5,37.5 C 192.367,34.8573 195.701,36.8573 196.5,43.5C 193.385,45.3498 190.052,45.8498 186.5,45C 187.814,42.3953 187.814,39.8953 186.5,37.5 Z"/></g>
<g><path style="opacity:1" fill="#ededed" d="M 216.5,37.5 C 219.715,36.4649 222.381,37.4649 224.5,40.5C 223.504,43.3319 221.504,44.6653 218.5,44.5C 218.662,42.4727 218.495,40.4727 218,38.5C 217.617,37.944 217.117,37.6107 216.5,37.5 Z"/></g>
<g><path style="opacity:1" fill="#dcdcdc" d="M 181.5,38.5 C 182.5,38.5 183.5,38.5 184.5,38.5C 184.5,39.5 184.5,40.5 184.5,41.5C 181.433,41.8795 180.433,40.8795 181.5,38.5 Z"/></g>
<g><path style="opacity:1" fill="#e3e3e3" d="M 208.5,37.5 C 210.337,37.6395 210.67,38.3061 209.5,39.5C 208.702,39.0431 208.369,38.3764 208.5,37.5 Z"/></g>
<g><path style="opacity:1" fill="#f5f5f5" d="M 213.5,39.5 C 214.5,39.5 215.5,39.5 216.5,39.5C 216.5,40.5 216.5,41.5 216.5,42.5C 215.5,42.5 214.5,42.5 213.5,42.5C 213.5,41.5 213.5,40.5 213.5,39.5 Z"/></g>
<g><path style="opacity:1" fill="#d3d3d3" d="M 205.5,38.5 C 206.043,38.56 206.376,38.8933 206.5,39.5C 205.985,41.2251 205.318,42.8917 204.5,44.5C 203.531,42.3835 203.864,40.3835 205.5,38.5 Z"/></g>
<g><path style="opacity:1" fill="#e6e6e6" d="M 208.5,41.5 C 210.337,41.6395 210.67,42.3061 209.5,43.5C 208.702,43.0431 208.369,42.3764 208.5,41.5 Z"/></g>
<g><path style="opacity:1" fill="#141414" d="M 202.5,47.5 C 206.075,49.2858 209.742,49.6191 213.5,48.5C 213.833,48.8333 214.167,49.1667 214.5,49.5C 212.922,50.2978 211.256,50.7978 209.5,51C 211.019,52.3513 212.352,53.8513 213.5,55.5C 213.167,55.8333 212.833,56.1667 212.5,56.5C 209.673,52.6592 206.34,49.6592 202.5,47.5 Z"/></g>
<g><path style="opacity:1" fill="#00f3f3" d="M 119.5,68.5 C 118.833,73.8333 118.167,79.1667 117.5,84.5C 115.52,83.1525 114.353,81.1525 114,78.5C 112.599,70.0134 113.932,62.0134 118,54.5C 119.814,53.2404 121.647,53.2404 123.5,54.5C 120.742,58.7732 119.408,63.4399 119.5,68.5 Z"/></g>
<g><path style="opacity:1" fill="#00f9f9" d="M 110.5,76.5 C 113.011,79.6975 114.345,83.3642 114.5,87.5C 111.747,91.3197 108.747,94.9864 105.5,98.5C 103.476,96.6419 101.309,94.9752 99,93.5C 98.1667,91.5 97.3333,89.5 96.5,87.5C 96.5221,88.9952 96.1887,90.6619 95.5,92.5C 91.1498,91.833 88.1498,89.4997 86.5,85.5C 85.4063,86.868 85.7397,88.0347 87.5,89C 84.5144,88.8724 81.5144,88.8724 78.5,89C 80.7006,90.0432 83.0339,90.8765 85.5,91.5C 83.9499,93.4852 82.7832,95.4852 82,97.5C 83.9904,95.3442 86.1571,93.3442 88.5,91.5C 90.9252,92.3076 93.2585,93.3076 95.5,94.5C 93.5101,95.4981 91.5101,96.4981 89.5,97.5C 88.1667,98.1667 88.1667,98.8333 89.5,99.5C 92.273,98.0301 95.1063,96.6968 98,95.5C 100.707,96.205 102.874,97.705 104.5,100C 100.69,103.464 98.3564,107.631 97.5,112.5C 91.7104,112.904 86.0438,112.404 80.5,111C 74.8894,104.722 70.056,97.8884 66,90.5C 65.8497,84.9555 67.683,80.1222 71.5,76C 76.0125,74.7194 80.3459,73.0527 84.5,71C 94.0622,69.0368 102.729,70.8702 110.5,76.5 Z"/></g>
<g><path style="opacity:1" fill="#994600" d="M 227.5,57.5 C 228.598,58.6009 228.765,59.9343 228,61.5C 224.96,65.5588 221.126,68.3922 216.5,70C 199.847,71.1434 183.513,69.4768 167.5,65C 165.465,62.6853 163.132,61.8519 160.5,62.5C 163.879,64.8561 167.546,66.6894 171.5,68C 187.701,71.7356 204.034,72.7356 220.5,71C 221.685,69.647 223.019,68.4803 224.5,67.5C 225.614,68.723 225.781,70.0563 225,71.5C 222.766,73.6998 220.266,75.5331 217.5,77C 194.826,81.3757 174.826,76.209 157.5,61.5C 159.765,60.3526 162.098,60.1859 164.5,61C 181.913,67.1235 199.913,69.1235 218.5,67C 223.079,65.2565 226.079,62.0898 227.5,57.5 Z"/></g>
<g><path style="opacity:1" fill="#070804" d="M 119.5,68.5 C 119.181,73.3633 119.514,78.03 120.5,82.5C 121.882,85.3943 123.882,87.8943 126.5,90C 148.303,102.301 171.636,106.635 196.5,103C 199.194,100.653 202.194,98.8202 205.5,97.5C 206.5,97.5 207.5,97.5 208.5,97.5C 205.382,99.4774 202.548,101.811 200,104.5C 200.83,111.833 200.663,119.166 199.5,126.5C 204.356,127.343 208.356,129.677 211.5,133.5C 211.167,133.833 210.833,134.167 210.5,134.5C 207.572,131.202 203.905,129.202 199.5,128.5C 198.712,133.304 200.712,136.137 205.5,137C 208.44,139.363 209.773,142.196 209.5,145.5C 208.081,143.664 206.914,141.664 206,139.5C 200.208,135.153 198.208,136.82 200,144.5C 203.939,146.533 206.772,149.533 208.5,153.5C 208.333,154.167 208.167,154.833 208,155.5C 206.759,151.258 204.092,148.258 200,146.5C 198.699,148.365 198.365,150.365 199,152.5C 201.127,154.114 202.627,156.114 203.5,158.5C 203.167,158.5 202.833,158.5 202.5,158.5C 199.283,153.021 197.616,153.354 197.5,159.5C 167.641,163.442 137.641,165.109 107.5,164.5C 100.847,160.171 94.8466,155.171 89.5,149.5C 89.5,148.167 89.5,146.833 89.5,145.5C 90.3954,135.038 93.062,125.038 97.5,115.5C 92.6833,114.833 88.0166,114.166 83.5,113.5C 88.3633,113.819 93.03,113.486 97.5,112.5C 98.3564,107.631 100.69,103.464 104.5,100C 102.874,97.705 100.707,96.205 98,95.5C 95.1063,96.6968 92.273,98.0301 89.5,99.5C 88.1667,98.8333 88.1667,98.1667 89.5,97.5C 91.5101,96.4981 93.5101,95.4981 95.5,94.5C 93.2585,93.3076 90.9252,92.3076 88.5,91.5C 86.1571,93.3442 83.9904,95.3442 82,97.5C 82.7832,95.4852 83.9499,93.4852 85.5,91.5C 83.0339,90.8765 80.7006,90.0432 78.5,89C 81.5144,88.8724 84.5144,88.8724 87.5,89C 85.7397,88.0347 85.4063,86.868 86.5,85.5C 88.1498,89.4997 91.1498,91.833 95.5,92.5C 96.1887,90.6619 96.5221,88.9952 96.5,87.5C 97.3333,89.5 98.1667,91.5 99,93.5C 101.309,94.9752 103.476,96.6419 105.5,98.5C 108.747,94.9864 111.747,91.3197 114.5,87.5C 115.5,86.5 116.5,85.5 117.5,84.5C 118.167,79.1667 118.833,73.8333 119.5,68.5 Z"/></g>
<g><path style="opacity:1" fill="#f7f700" d="M 111.5,92.5 C 118.018,99.8316 126.018,104.998 135.5,108C 150.693,112.439 166.193,114.939 182,115.5C 187.511,115.254 193.011,114.921 198.5,114.5C 198.5,117.833 198.5,121.167 198.5,124.5C 168.653,132.954 140.653,129.121 114.5,113C 106.784,106.956 105.784,100.122 111.5,92.5 Z"/></g>
<g><path style="opacity:1" fill="#1e3434" d="M 111.5,76.5 C 111.167,76.5 110.833,76.5 110.5,76.5C 102.729,70.8702 94.0622,69.0368 84.5,71C 80.3459,73.0527 76.0125,74.7194 71.5,76C 67.683,80.1222 65.8497,84.9555 66,90.5C 70.056,97.8884 74.8894,104.722 80.5,111C 86.0438,112.404 91.7104,112.904 97.5,112.5C 93.03,113.486 88.3633,113.819 83.5,113.5C 79.6681,112.182 76.5014,109.848 74,106.5C 71,101.5 68,96.5 65,91.5C 63.8199,82.0377 67.6533,75.5377 76.5,72C 83.8944,68.9668 91.561,67.9668 99.5,69C 104.07,70.7744 108.07,73.2744 111.5,76.5 Z"/></g>
<g><path style="opacity:1" fill="#f6f600" d="M 98.5,117.5 C 102.593,124.761 108.259,130.594 115.5,135C 125.564,138.548 135.897,141.215 146.5,143C 159.833,143.667 173.167,143.667 186.5,143C 190.496,141.486 194.496,140.986 198.5,141.5C 197.746,144.777 197.246,148.11 197,151.5C 196.5,153.333 195.333,154.5 193.5,155C 189.943,156.408 186.276,157.408 182.5,158C 168.84,158.968 155.174,159.301 141.5,159C 128.771,155.314 116.438,150.647 104.5,145C 99.8547,141.199 96.188,136.699 93.5,131.5C 94.7922,126.618 96.4588,121.952 98.5,117.5 Z"/></g>
<g><path style="opacity:1" fill="#1578bf" d="M 242.5,139.5 C 257.782,138.055 268.949,144.055 276,157.5C 277.347,170.982 272.514,181.815 261.5,190C 249.753,197.705 237.086,203.538 223.5,207.5C 222.167,206.833 222.167,206.167 223.5,205.5C 235.262,199.573 245.762,191.906 255,182.5C 260.776,175.507 263.109,167.507 262,158.5C 259.305,151.137 254.138,146.637 246.5,145C 241.465,144.582 236.465,144.582 231.5,145C 234.819,142.294 238.485,140.461 242.5,139.5 Z"/></g>
<g><path style="opacity:1" fill="#1173b8" d="M 89.5,145.5 C 89.5,146.833 89.5,148.167 89.5,149.5C 89.1734,154.214 89.5067,158.88 90.5,163.5C 96.1045,164.454 101.771,164.788 107.5,164.5C 137.641,165.109 167.641,163.442 197.5,159.5C 199.415,159.784 201.081,159.451 202.5,158.5C 202.833,158.5 203.167,158.5 203.5,158.5C 209.875,157.579 216.208,156.745 222.5,156C 217.373,158.397 212.373,161.064 207.5,164C 205.26,164.977 202.927,165.477 200.5,165.5C 200.649,166.552 200.483,167.552 200,168.5C 198.541,166.19 196.708,165.857 194.5,167.5C 172.811,170.742 151.145,172.742 129.5,173.5C 117.813,173.666 106.146,173.333 94.5,172.5C 93.1667,172.5 91.8333,172.5 90.5,172.5C 78.2456,171.84 66.2456,169.673 54.5,166C 49.2905,163.209 49.2905,160.209 54.5,157C 65.4864,151.06 77.153,147.227 89.5,145.5 Z"/></g>
<g><path style="opacity:1" fill="#f1f4f7" d="M 85.5,150.5 C 86.5,150.5 87.5,150.5 88.5,150.5C 88.8256,154.884 88.4922,159.217 87.5,163.5C 72.3102,160.968 71.6435,156.634 85.5,150.5 Z"/></g>
<g><path style="opacity:1" fill="#e9ec13" d="M 89.5,149.5 C 94.8466,155.171 100.847,160.171 107.5,164.5C 101.771,164.788 96.1045,164.454 90.5,163.5C 89.5067,158.88 89.1734,154.214 89.5,149.5 Z"/></g>
<g><path style="opacity:1" fill="#dfe7ec" d="M 202.5,158.5 C 201.081,159.451 199.415,159.784 197.5,159.5C 197.616,153.354 199.283,153.021 202.5,158.5 Z"/></g>
<g><path style="opacity:1" fill="#0b0b08" d="M 194.5,167.5 C 195.547,170.596 196.88,173.596 198.5,176.5C 198.167,176.833 197.833,177.167 197.5,177.5C 196.502,175.51 195.502,173.51 194.5,171.5C 193.998,170.479 193.332,170.312 192.5,171C 189.627,176.58 186.627,182.08 183.5,187.5C 180.788,189.885 178.122,192.218 175.5,194.5C 153.237,197.664 130.904,198.164 108.5,196C 105.618,195.728 102.951,194.894 100.5,193.5C 97.6952,191.208 95.3619,188.541 93.5,185.5C 93.1667,184.833 92.8333,184.167 92.5,183.5C 90.9084,180.034 90.2417,176.367 90.5,172.5C 91.8333,172.5 93.1667,172.5 94.5,172.5C 98.9277,175.891 103.594,179.058 108.5,182C 127.358,188.114 146.691,190.114 166.5,188C 172.808,186.679 178.808,184.512 184.5,181.5C 186.167,178.833 187.833,176.167 189.5,173.5C 189.167,173.167 188.833,172.833 188.5,172.5C 182.816,174.309 176.983,175.309 171,175.5C 157.17,174.708 143.336,174.042 129.5,173.5C 151.145,172.742 172.811,170.742 194.5,167.5 Z"/></g>
<g><path style="opacity:1" fill="#fafa00" d="M 94.5,172.5 C 106.146,173.333 117.813,173.666 129.5,173.5C 143.336,174.042 157.17,174.708 171,175.5C 176.983,175.309 182.816,174.309 188.5,172.5C 188.833,172.833 189.167,173.167 189.5,173.5C 187.833,176.167 186.167,178.833 184.5,181.5C 178.808,184.512 172.808,186.679 166.5,188C 146.691,190.114 127.358,188.114 108.5,182C 103.594,179.058 98.9277,175.891 94.5,172.5 Z"/></g>
<g><path style="opacity:1" fill="#0b75bd" d="M 92.5,183.5 C 92.8333,184.167 93.1667,184.833 93.5,185.5C 90.524,189.406 91.524,192.239 96.5,194C 98.0657,194.765 99.3991,194.598 100.5,193.5C 102.951,194.894 105.618,195.728 108.5,196C 130.904,198.164 153.237,197.664 175.5,194.5C 179.884,193.99 184.218,193.157 188.5,192C 191.5,191.333 194.5,191.333 197.5,192C 200.659,195.082 204.325,197.416 208.5,199C 207.377,200.044 206.044,200.71 204.5,201C 177.309,208.245 149.643,211.078 121.5,209.5C 119.5,209.5 117.5,209.5 115.5,209.5C 104.096,208.732 93.0963,205.898 82.5,201C 78.3561,198.28 77.5228,194.78 80,190.5C 83.6602,187.253 87.8269,184.92 92.5,183.5 Z"/></g>
<g><path style="opacity:1" fill="#e8eff5" d="M 93.5,185.5 C 95.3619,188.541 97.6952,191.208 100.5,193.5C 99.3991,194.598 98.0657,194.765 96.5,194C 91.524,192.239 90.524,189.406 93.5,185.5 Z"/></g>
<g><path style="opacity:1" fill="#171717" d="M 115.5,209.5 C 117.5,209.5 119.5,209.5 121.5,209.5C 120.089,211.539 118.089,212.539 115.5,212.5C 115.5,211.5 115.5,210.5 115.5,209.5 Z"/></g>
<g><path style="opacity:1" fill="#1177be" d="M 100.5,220.5 C 103.336,220.202 103.836,220.869 102,222.5C 101.249,226.595 103.082,228.762 107.5,229C 132.909,232.633 158.243,232.133 183.5,227.5C 190.213,230.018 196.88,232.851 203.5,236C 170.212,250.026 136.212,252.026 101.5,242C 84.6249,235.211 84.2916,228.045 100.5,220.5 Z"/></g>
<g><path style="opacity:1" fill="#1b79bf" d="M 63.5,244.5 C 67.9671,244.133 72.3004,244.633 76.5,246C 66.1994,246.991 56.5327,249.991 47.5,255C 44.8333,257.333 44.8333,259.667 47.5,262C 54.2694,264.776 61.2694,266.776 68.5,268C 116.148,272.536 163.815,272.536 211.5,268C 224.438,266.599 237.104,263.932 249.5,260C 255.453,258.105 257.953,254.272 257,248.5C 262.269,251.737 262.769,255.571 258.5,260C 254.112,262.861 249.446,265.194 244.5,267C 216.47,275.539 187.803,280.206 158.5,281C 117.219,282.607 76.2191,279.941 35.5,273C 31.2049,272.102 27.3716,270.269 24,267.5C 23.0675,262.062 25.2342,258.228 30.5,256C 41.0356,250.434 52.0356,246.601 63.5,244.5 Z"/></g>
<g><path style="opacity:1" fill="#1c7ac0" d="M 275.5,266.5 C 276.043,266.56 276.376,266.893 276.5,267.5C 272.511,275.653 266.177,281.153 257.5,284C 234.115,291.565 210.115,295.898 185.5,297C 153.748,298.294 122.081,297.294 90.5,294C 83.1758,293.086 76.1758,291.086 69.5,288C 128.195,295.776 186.528,293.443 244.5,281C 251.231,278.867 257.898,276.534 264.5,274C 268.894,272.418 272.561,269.918 275.5,266.5 Z"/></g>
</svg>
